<svg xmlns="http://www.w3.org/2000/svg" fill="none" viewBox="-2 -2 64 64" id="Check-Double--Streamline-Ultimate" height="64" width="64">
  <desc>
    Check Double Streamline Icon: https://streamlinehq.com
  </desc>
  <path stroke="#ff0003" stroke-linejoin="round" d="m20.619925000000002 52.20525000000001 -16.5775 -16.58c-1.325575 -1.3992499999999999 -2.0528675 -3.2605 -2.0271475 -5.187749999999999 0.02572 -1.9275 0.8024225 -3.7687500000000003 2.1648725 -5.132 1.36245 -1.3635 3.203125 -2.141525 5.130425 -2.168625 1.9273000000000002 -0.027100000000000003 3.7891000000000004 0.69885 5.18935 2.023375l10.545074999999999 10.545 19.75 -26.33245c0.58275 -0.777925 1.31325 -1.4334 2.1495 -1.92905 0.83625 -0.49562500000000004 1.762 -0.8217000000000001 2.7242499999999996 -0.9596 0.96225 -0.137875 1.9420000000000002 -0.08489999999999999 2.884 0.155925 0.94175 0.24084999999999998 1.82675 0.664825 2.60475 1.247725 0.7777499999999999 0.5829 1.4332500000000001 1.3133249999999999 1.9289999999999998 2.14955 0.49549999999999994 0.83625 0.82175 1.7619000000000002 0.9594999999999999 2.7241500000000003 0.138 0.96225 0.085 1.9422249999999999 -0.15575 2.884 -0.241 0.941775 -0.665 1.826875 -1.24775 2.6048L31.775000000000002 51.41275c-0.6365 0.84825 -1.4474999999999998 1.54975 -2.37875 2.05725 -0.931 0.5075000000000001 -1.96025 0.8089999999999999 -3.0180000000000002 0.88425 -1.05775 0.075 -2.11925 -0.07775 -3.112725 -0.4485 -0.9934750000000001 -0.37074999999999997 -1.8957 -0.9507500000000001 -2.6456 -1.7005000000000001Z" stroke-width="4"></path>
</svg>